<?xml version="1.0" encoding="utf-8"?>
<!-- Generator: Adobe Illustrator 12.0.0, SVG Export Plug-In . SVG Version: 6.00 Build 51448)  -->
<!DOCTYPE svg PUBLIC "-//W3C//DTD SVG 1.1//EN" "http://www.w3.org/Graphics/SVG/1.1/DTD/svg11.dtd" [
	<!ENTITY ns_svg "http://www.w3.org/2000/svg">
	<!ENTITY ns_xlink "http://www.w3.org/1999/xlink">
]>
<svg  version="1.1" id="Capa_1" xmlns="&ns_svg;" xmlns:xlink="&ns_xlink;" width="64" height="64" viewBox="0 0 64 64"
	 overflow="visible" enable-background="new 0 0 64 64" xml:space="preserve">
<g>
	<path fill="#000" d="M17.5,43.5v-15c0-6.627,5.373-12,12-12h12c1.039,0,2.043-0.015,3-0.015
		C44.497,11.522,40.472,7.5,35.509,7.5H17.491c-4.966,0-8.991,4.025-8.991,8.991v18.018c0,4.966,4.025,8.991,8.991,8.991H17.5z"/>
	<path fill="#000" d="M47.509,19.5H29.491c-4.966,0-8.991,4.025-8.991,8.991v18.018c0,4.966,4.025,8.991,8.991,8.991h18.018
		c4.966,0,8.991-4.025,8.991-8.991V28.491C56.5,23.525,52.475,19.5,47.509,19.5z M50.5,46.509c0,1.632-1.338,2.991-2.991,2.991
		H29.491c-1.632,0-2.991-1.338-2.991-2.991V28.491c0-1.632,1.337-2.991,2.991-2.991h18.018c1.632,0,2.991,1.337,2.991,2.991V46.509z
		"/>
</g>
</svg>
