<?xml version="1.0" encoding="utf-8"?>
<!-- Generator: Adobe Illustrator 12.0.0, SVG Export Plug-In . SVG Version: 6.00 Build 51448)  -->
<!DOCTYPE svg PUBLIC "-//W3C//DTD SVG 1.1//EN" "http://www.w3.org/Graphics/SVG/1.1/DTD/svg11.dtd" [
	<!ENTITY ns_svg "http://www.w3.org/2000/svg">
	<!ENTITY ns_xlink "http://www.w3.org/1999/xlink">
]>
<svg  version="1.1" id="Layer_1" xmlns="&ns_svg;" xmlns:xlink="&ns_xlink;" width="64" height="64" viewBox="0 0 64 64"
	 overflow="visible" enable-background="new 0 0 64 64" xml:space="preserve">
<g>
	<path fill="#000" d="M55.642,21.389L43.627,8.473C43.06,7.861,42.306,7.5,41.551,7.5c-0.754,0-1.508,0.306-2.074,0.917
		L15.915,33.655c-1.143,1.224-1.143,3.227,0,4.452l6.807,7.733c1.149,1.225,3.404,2.659,5.018,2.659h4.519
		c1.62,0,3.877-1.435,5.021-2.659L55.642,25.95C56.786,24.727,56.786,22.612,55.642,21.389 M34.879,43.614
		c-0.594,0.632-1.78,1.737-2.622,1.737h-4.518c-0.831,0-2.349-1.105-2.939-1.737l-6.807-7.48L28.692,24.58l11.863,12.708
		L34.879,43.614z"/>
	<rect x="8.5" y="51.641" fill="#000" width="43.88" height="3.859"/>
</g>
</svg>
