<?xml version="1.0" encoding="utf-8"?>
<!-- Generator: Adobe Illustrator 12.0.0, SVG Export Plug-In . SVG Version: 6.00 Build 51448)  -->
<!DOCTYPE svg PUBLIC "-//W3C//DTD SVG 1.1//EN" "http://www.w3.org/Graphics/SVG/1.1/DTD/svg11.dtd" [
	<!ENTITY ns_svg "http://www.w3.org/2000/svg">
	<!ENTITY ns_xlink "http://www.w3.org/1999/xlink">
]>
<svg  version="1.1" id="Capa_1" xmlns="&ns_svg;" xmlns:xlink="&ns_xlink;" width="64" height="64" viewBox="0 0 64 64"
	 overflow="visible" enable-background="new 0 0 64 64" xml:space="preserve">
<g>
	<path fill="#000" d="M41.501,16.5c1.035,0,2.045-0.015,2.999-0.015C44.497,11.523,40.472,7.5,35.509,7.5H17.491
		c-4.965,0-8.991,4.025-8.991,8.991v18.018c0,4.966,4.025,8.991,8.991,8.991h0.01v-6h-0.01c-1.631,0-2.991-1.336-2.991-2.991V16.491
		c0-1.631,1.337-2.991,2.991-2.991h18.018c1.632,0,2.991,1.337,2.991,2.991V16.5H41.501z"/>
	<path fill="#000" d="M47.51,19.5H29.491c-4.966,0-8.992,4.026-8.992,8.992v18.017c0,4.967,4.026,8.992,8.992,8.992H47.51
		c4.965,0,8.99-4.025,8.99-8.992V28.491C56.5,23.525,52.475,19.5,47.51,19.5z"/>
</g>
</svg>
