<?xml version="1.0" encoding="utf-8"?>
<!-- Generator: Adobe Illustrator 12.0.0, SVG Export Plug-In . SVG Version: 6.00 Build 51448)  -->
<!DOCTYPE svg PUBLIC "-//W3C//DTD SVG 1.1//EN" "http://www.w3.org/Graphics/SVG/1.1/DTD/svg11.dtd" [
	<!ENTITY ns_svg "http://www.w3.org/2000/svg">
	<!ENTITY ns_xlink "http://www.w3.org/1999/xlink">
]>
<svg  version="1.1" id="Layer_1" xmlns="&ns_svg;" xmlns:xlink="&ns_xlink;" width="64" height="64" viewBox="0 0 64 64"
	 overflow="visible" enable-background="new 0 0 64 64" xml:space="preserve">
<g id="XMLID_4_">
	<g>
		<path fill="#000" d="M32.5,7.5c13.244,0,24,10.745,24,24c0,13.244-10.756,24-24,24c-13.255,0-24-10.756-24-24
			C8.5,18.245,19.245,7.5,32.5,7.5z M52.5,31.5c0-11.045-8.955-20-20-20s-20,8.955-20,20c0,11.046,8.955,20,20,20
			S52.5,42.546,52.5,31.5z"/>
		<path fill="#00DC00" d="M32.5,11.5c11.045,0,20,8.955,20,20c0,11.046-8.955,20-20,20s-20-8.955-20-20S21.455,11.5,32.5,11.5z
			 M45.811,31.5c0-1.889-1.521-3.422-3.422-3.422h-6.467V21.6c0-1.889-1.533-3.41-3.422-3.41s-3.422,1.521-3.422,3.41v6.479H22.61
			c-1.899,0-3.422,1.533-3.422,3.422c0,1.89,1.522,3.423,3.422,3.423h6.468v6.467c0,1.889,1.533,3.422,3.422,3.422
			s3.422-1.533,3.422-3.422v-6.468h6.468C44.29,34.922,45.811,33.39,45.811,31.5z"/>
		<path fill="#FFFFFF" d="M42.39,28.078c1.9,0,3.422,1.533,3.422,3.422c0,1.89-1.521,3.422-3.422,3.422h-6.468v6.467
			c0,1.889-1.533,3.423-3.422,3.423s-3.422-1.534-3.422-3.423v-6.467H22.61c-1.899,0-3.422-1.533-3.422-3.422
			s1.522-3.422,3.422-3.422h6.468V21.6c0-1.889,1.533-3.41,3.422-3.41s3.422,1.521,3.422,3.41v6.479H42.39L42.39,28.078z"/>
	</g>
</g>
</svg>
