<svg width="511.626" height="511.626" xmlns="http://www.w3.org/2000/svg">

 <g>
  <title>background</title>
  <rect fill="none" id="canvas_background" height="402" width="582" y="-1" x="-1"/>
 </g>
 <g>
  <title>Layer 1</title>
  <g stroke="null" id="svg_1">
   <path stroke="null" id="svg_2" d="m473.898719,244.624437l-63.661371,-63.6605c-3.147793,-3.150406 -6.879156,-4.724303 -11.190605,-4.724303c-4.309707,0 -8.038457,1.573897 -11.189734,4.724303c-3.146922,3.152148 -4.724303,6.88264 -4.724303,11.192347l0,31.832427l-95.492056,0l0,-95.492056l31.834169,0c4.309707,0 8.04107,-1.575639 11.189734,-4.724303c3.147793,-3.150406 4.72169,-6.877414 4.72169,-11.189734c0,-4.313191 -1.573897,-8.043683 -4.72169,-11.193218l-63.662242,-63.661371c-3.146922,-3.149535 -6.876543,-4.724303 -11.189734,-4.724303c-4.313191,0 -8.04107,1.575639 -11.192347,4.724303l-63.659629,63.661371c-3.151277,3.152148 -4.724303,6.88264 -4.724303,11.193218c0,4.307965 1.573897,8.038457 4.724303,11.189734c3.152148,3.148664 6.879156,4.724303 11.192347,4.724303l31.830685,0l0,95.492927l-95.491185,0l0,-31.832427c0,-4.313191 -1.575639,-8.042812 -4.726045,-11.192347c-3.152148,-3.150406 -6.88264,-4.724303 -11.192347,-4.724303c-4.308836,0 -8.039328,1.573897 -11.189734,4.724303l-63.6605,63.659629c-3.148664,3.150406 -4.724303,6.879156 -4.724303,11.189734s1.575639,8.041941 4.724303,11.189734l63.6605,63.658758c3.150406,3.146922 6.878285,4.7304 11.189734,4.7304c4.313191,0 8.042812,-1.582607 11.192347,-4.7304c3.150406,-3.144309 4.726045,-6.879156 4.726045,-11.189734l0,-31.834169l95.491185,0l0,95.492927l-31.828072,0c-4.313191,0 -8.043683,1.577381 -11.193218,4.724303c-3.150406,3.150406 -4.724303,6.879156 -4.724303,11.189734s1.573897,8.041941 4.724303,11.195831l63.6605,63.656145c3.15389,3.147793 6.88264,4.724303 11.193218,4.724303c4.309707,0 8.044554,-1.57651 11.189734,-4.724303l63.658758,-63.656145c3.15389,-3.153019 4.727787,-6.885253 4.727787,-11.195831s-1.573897,-8.038457 -4.727787,-11.189734c-3.147793,-3.146922 -6.879156,-4.724303 -11.189734,-4.724303l-31.828072,0l0,-95.490314l95.490314,0l0,31.837653c0,4.309707 1.573897,8.04107 4.720819,11.189734c3.15389,3.146922 6.885253,4.727787 11.195831,4.727787c4.306223,0 8.035844,-1.579994 11.189734,-4.727787l63.658758,-63.662242c3.150406,-3.150406 4.724303,-6.881769 4.724303,-11.192347s-1.573897,-8.039328 -4.727787,-11.189734z"/>
  </g>
  <g id="svg_3"/>
  <g id="svg_4"/>
  <g id="svg_5"/>
  <g id="svg_6"/>
  <g id="svg_7"/>
  <g id="svg_8"/>
  <g id="svg_9"/>
  <g id="svg_10"/>
  <g id="svg_11"/>
  <g id="svg_12"/>
  <g id="svg_13"/>
  <g id="svg_14"/>
  <g id="svg_15"/>
  <g id="svg_16"/>
  <g id="svg_17"/>
 </g>
</svg>