<?xml version="1.0" encoding="utf-8"?>
<!-- Generator: Adobe Illustrator 12.0.0, SVG Export Plug-In . SVG Version: 6.00 Build 51448)  -->
<!DOCTYPE svg PUBLIC "-//W3C//DTD SVG 1.1//EN" "http://www.w3.org/Graphics/SVG/1.1/DTD/svg11.dtd" [
	<!ENTITY ns_svg "http://www.w3.org/2000/svg">
	<!ENTITY ns_xlink "http://www.w3.org/1999/xlink">
]>
<svg  version="1.1" id="Layer_1" xmlns="&ns_svg;" xmlns:xlink="&ns_xlink;" width="64" height="64" viewBox="0 0 64 64"
	 overflow="visible" enable-background="new 0 0 64 64" xml:space="preserve">
<g>
	<path fill="#000" d="M19.281,26.984v-1.936c0.836-0.042,1.421-0.101,1.755-0.181c0.533-0.126,0.968-0.38,1.301-0.758
		c0.229-0.26,0.401-0.605,0.52-1.038c0.068-0.26,0.104-0.452,0.104-0.579h2.217v14.47h-3.122v-9.979L19.281,26.984L19.281,26.984z"
		/>
	<path fill="#000" d="M36.771,26.984v-1.936c0.836-0.042,1.42-0.101,1.754-0.181c0.533-0.126,0.969-0.38,1.3-0.758
		c0.229-0.26,0.405-0.605,0.522-1.038c0.067-0.26,0.1-0.452,0.1-0.579h2.219v14.47H39.54v-9.979L36.771,26.984L36.771,26.984z"/>
	<path fill="#000" d="M30.264,25.088h2.821v2.98h-2.821V25.088z M30.264,32.561h2.821v2.983h-2.821V32.561z"/>
	<path fill="#000" d="M31.48,51.744c-12.13,0-22-9.869-22-21.999c0-12.13,9.869-22.001,22-22.001c12.131,0,22,9.871,22,22.001
		C53.48,41.875,43.613,51.744,31.48,51.744 M31.48,10.245c-10.75,0-19.499,8.748-19.499,19.5c0,10.752,8.749,19.5,19.499,19.5
		c10.753,0,19.5-8.747,19.5-19.5C50.98,18.993,42.233,10.245,31.48,10.245"/>
	<path fill="#000" d="M54.443,54.428c-1.294,1.243-3.188,1.434-4.224,0.426l-6.129-5.957c-1.035-1.01-0.83-2.83,0.465-4.073
		c1.297-1.241,3.187-1.437,4.224-0.427l6.13,5.955C55.947,51.359,55.737,53.186,54.443,54.428"/>
</g>
</svg>
