<?xml version="1.0" encoding="utf-8"?>
<!-- Generator: Adobe Illustrator 12.0.0, SVG Export Plug-In . SVG Version: 6.00 Build 51448)  -->
<!DOCTYPE svg PUBLIC "-//W3C//DTD SVG 1.1//EN" "http://www.w3.org/Graphics/SVG/1.1/DTD/svg11.dtd" [
	<!ENTITY ns_svg "http://www.w3.org/2000/svg">
	<!ENTITY ns_xlink "http://www.w3.org/1999/xlink">
]>
<svg  version="1.1" id="Layer_1" xmlns="&ns_svg;" xmlns:xlink="&ns_xlink;" width="64" height="64" viewBox="0 0 64 64"
	 overflow="visible" enable-background="new 0 0 64 64" xml:space="preserve">
<g>
	<path fill="#FFF" d="M42.021,24.73H36.59V12.06h5.43L42.021,24.73L42.021,24.73z M56.5,19.3v30.769c0,3-2.432,5.432-5.432,5.432
		H14.871c-2.997,0-5.43-2.432-5.43-5.432V13.871c0-3,2.433-5.43,5.43-5.43h30.77c1.498,0,2.325,0.078,6.555,4.305
		C56.422,16.975,56.5,17.802,56.5,19.3 M18.491,24.73c0,0.998,0.814,1.81,1.811,1.81h23.53c0.995,0,1.811-0.813,1.811-1.81V12.06
		c0-0.997-0.813-1.81-1.811-1.81H20.3c-0.997,0-1.81,0.813-1.81,1.81L18.491,24.73L18.491,24.73z M51.068,33.781
		c0-0.998-0.813-1.812-1.81-1.812H16.682c-0.998,0-1.811,0.813-1.811,1.812V51.88c0,0.997,0.813,1.812,1.811,1.812h32.58
		c0.995,0,1.811-0.813,1.811-1.812L51.068,33.781L51.068,33.781z"/>
</g>
</svg>
