<?xml version="1.0" encoding="utf-8"?>
<!-- Generator: Adobe Illustrator 12.0.0, SVG Export Plug-In . SVG Version: 6.00 Build 51448)  -->
<!DOCTYPE svg PUBLIC "-//W3C//DTD SVG 1.1//EN" "http://www.w3.org/Graphics/SVG/1.1/DTD/svg11.dtd" [
	<!ENTITY ns_svg "http://www.w3.org/2000/svg">
	<!ENTITY ns_xlink "http://www.w3.org/1999/xlink">
]>
<svg  version="1.1" id="Layer_2" xmlns="&ns_svg;" xmlns:xlink="&ns_xlink;" width="64" height="64" viewBox="0 0 64 64"
	 overflow="visible" enable-background="new 0 0 64 64" xml:space="preserve">
<path fill="#969696" d="M48.703,30.947l-12.504,9.514l4.776,15.392c0.259,0.834-0.025,1.746-0.701,2.262
	c-0.339,0.257-0.737,0.386-1.136,0.386s-0.797-0.129-1.135-0.386L25.5,48.601l-12.503,9.513c-0.678,0.516-1.595,0.516-2.271,0
	c-0.675-0.515-0.959-1.428-0.701-2.261L14.8,40.459L2.297,30.947c-0.677-0.515-0.961-1.427-0.703-2.261
	c0.259-0.833,1.002-1.397,1.838-1.397h15.455l4.775-15.392c0.259-0.833,1-1.397,1.838-1.397c0.837,0,1.578,0.564,1.837,1.397
	l4.775,15.392h15.456c0.836,0,1.578,0.564,1.838,1.397C49.663,29.52,49.379,30.433,48.703,30.947z"/>
<path fill="#000" d="M55.736,28.095l-11.983,9.118l4.578,14.75c0.248,0.799-0.024,1.673-0.672,2.167
	c-0.325,0.247-0.707,0.37-1.089,0.37s-0.764-0.123-1.088-0.37L33.5,45.013l-11.982,9.116c-0.65,0.494-1.528,0.494-2.177,0
	c-0.647-0.493-0.919-1.368-0.671-2.166l4.575-14.752l-11.981-9.116c-0.649-0.493-0.921-1.368-0.673-2.167
	c0.249-0.798,0.961-1.339,1.761-1.339h14.811l4.578-14.75c0.248-0.799,0.958-1.339,1.76-1.339c0.802,0,1.513,0.541,1.761,1.339
	l4.576,14.75h14.812c0.802,0,1.513,0.541,1.762,1.339C56.656,26.728,56.384,27.602,55.736,28.095z"/>
</svg>
