<?xml version="1.0" encoding="utf-8"?>
<!-- Generator: Adobe Illustrator 12.0.0, SVG Export Plug-In . SVG Version: 6.00 Build 51448)  -->
<!DOCTYPE svg PUBLIC "-//W3C//DTD SVG 1.1//EN" "http://www.w3.org/Graphics/SVG/1.1/DTD/svg11.dtd" [
	<!ENTITY ns_svg "http://www.w3.org/2000/svg">
	<!ENTITY ns_xlink "http://www.w3.org/1999/xlink">
]>
<svg  version="1.1" id="Layer_1" xmlns="&ns_svg;" xmlns:xlink="&ns_xlink;" width="64" height="64" viewBox="0 0 64 64"
	 overflow="visible" enable-background="new 0 0 64 64" xml:space="preserve">
<g>
	<path fill="#000" d="M31.461,51.763c-12.126,0-21.999-9.869-21.999-22.024c0-12.107,9.872-21.976,21.999-21.976
		c12.129,0,22.001,9.869,22.001,21.976C53.507,41.894,43.637,51.763,31.461,51.763 M31.461,10.238
		c-10.738,0-19.499,8.749-19.499,19.501c0,10.75,8.761,19.499,19.499,19.499c10.741,0,19.501-8.751,19.501-19.499
		C50.963,18.987,42.247,10.238,31.461,10.238"/>
	<polygon fill="#000" points="27.227,20.684 27.227,18.471 18.617,18.471 18.617,26.287 20.734,26.287 20.734,20.684 	"/>
	<polygon fill="#000" points="35.744,20.684 35.744,18.471 44.355,18.471 44.355,26.287 42.189,26.287 42.189,20.684 	"/>
	<polygon fill="#000" points="27.227,38.811 27.227,41.023 18.617,41.023 18.617,33.207 20.734,33.207 20.734,38.811 	"/>
	<polygon fill="#000" points="35.744,38.811 35.744,41.023 44.355,41.023 44.355,33.207 42.189,33.207 42.189,38.811 	"/>
	<path fill="#000" d="M54.441,54.441c-1.318,1.226-3.2,1.412-4.235,0.425l-6.115-5.933c-1.037-0.988-0.85-2.826,0.469-4.098
		c1.317-1.227,3.199-1.413,4.234-0.425l6.117,5.979C55.946,51.382,55.759,53.218,54.441,54.441"/>
</g>
</svg>
