<?xml version="1.0" encoding="utf-8"?>
<!-- Generator: Adobe Illustrator 12.0.0, SVG Export Plug-In . SVG Version: 6.00 Build 51448)  -->
<!DOCTYPE svg PUBLIC "-//W3C//DTD SVG 1.1//EN" "http://www.w3.org/Graphics/SVG/1.1/DTD/svg11.dtd" [
	<!ENTITY ns_svg "http://www.w3.org/2000/svg">
	<!ENTITY ns_xlink "http://www.w3.org/1999/xlink">
]>
<svg  version="1.1" id="Layer_1" xmlns="&ns_svg;" xmlns:xlink="&ns_xlink;" width="64" height="64" viewBox="0 0 64 64"
	 overflow="visible" enable-background="new 0 0 64 64" xml:space="preserve">
<g>
	<path fill="#000" d="M31.355,51.357c-12.155,0-22.044-9.868-22.044-22.003c0-12.134,9.889-22.005,22.044-22.005
		c12.154,0,22.043,9.871,22.043,22.005C53.398,41.489,43.509,51.357,31.355,51.357 M31.355,9.855
		c-10.752,0-19.498,8.748-19.498,19.5s8.745,19.5,19.498,19.5c10.753,0,19.502-8.748,19.502-19.5S42.108,9.855,31.355,9.855"/>
	<polyline fill="#000" points="28.19,27.615 22.199,27.615 22.199,31.742 28.19,31.742 33.484,31.742 40.171,31.742 
		40.171,27.615 34.182,27.615 	"/>
	<path fill="#000" d="M54.525,54.448c-1.334,1.22-3.285,1.405-4.356,0.417l-6.321-5.846c-1.068-0.989-0.854-2.776,0.479-3.998
		c1.336-1.217,3.286-1.406,4.356-0.418l6.322,5.844C56.079,51.438,55.861,53.229,54.525,54.448"/>
</g>
</svg>
