<?xml version="1.0" encoding="utf-8"?>
<!-- Generator: Adobe Illustrator 12.0.0, SVG Export Plug-In . SVG Version: 6.00 Build 51448)  -->
<!DOCTYPE svg PUBLIC "-//W3C//DTD SVG 1.1//EN" "http://www.w3.org/Graphics/SVG/1.1/DTD/svg11.dtd" [
	<!ENTITY ns_svg "http://www.w3.org/2000/svg">
	<!ENTITY ns_xlink "http://www.w3.org/1999/xlink">
]>
<svg  version="1.1" id="Layer_1" xmlns="&ns_svg;" xmlns:xlink="&ns_xlink;" width="64" height="64" viewBox="0 0 64 64"
	 overflow="visible" enable-background="new 0 0 64 64" xml:space="preserve">
<g>
	<path fill="#000" d="M31.354,51.357c-12.154,0-22.043-9.869-22.043-22.004c0-12.134,9.889-22.006,22.043-22.006
		s22.044,9.872,22.044,22.005C53.398,41.488,43.509,51.357,31.354,51.357 M31.354,9.854c-10.752,0-19.498,8.748-19.498,19.5
		c0,10.752,8.746,19.5,19.498,19.5c10.752,0,19.502-8.747,19.502-19.5C50.856,18.601,42.108,9.854,31.354,9.854"/>
	<polygon fill="#000" points="41.669,27.614 34.182,27.614 34.182,20.735 29.688,20.735 29.688,27.614 22.2,27.614 22.2,31.741 
		29.688,31.741 29.688,38.62 34.182,38.62 34.182,31.741 41.669,31.741 	"/>
	<path fill="#000" d="M54.525,54.449c-1.336,1.219-3.285,1.404-4.356,0.416l-6.321-5.846c-1.068-0.989-0.854-2.777,0.479-3.998
		c1.336-1.221,3.284-1.408,4.356-0.418l6.322,5.846C56.079,51.438,55.861,53.229,54.525,54.449"/>
</g>
</svg>
